<svg id="Capa_1" enable-background="new 0 0 512 512" height="512" viewBox="0 0 512 512" width="512" xmlns="http://www.w3.org/2000/svg"><g><g><path d="m181.161 211.791 103.595 134.5c37.554-45.531 81.672-124.173 133.307-171.713 19.619-18.062 39.093-34.964 58.274-50.774l-88.142-88.142c-15.882 19.549-32.974 39.443-51.364 59.5-47.396 51.696-110.504 79.908-155.67 116.629z" fill="#c17d4f"/><path d="m388.196 35.662c-4.558 5.611-9.229 11.253-13.989 16.917l15.868 15.868c29.438 29.438 28.315 77.41-2.328 105.591-.196.18-.392.361-.589.542-44.698 41.151-83.758 105.595-117.809 151.708l15.407 20.004c37.554-45.531 81.672-124.174 133.307-171.713 19.619-18.062 39.093-34.964 58.274-50.775z" fill="#b16e3d"/><path d="m384.19 31.655 96.155 96.155c7.242 7.242 18.983 7.242 26.224 0 7.242-7.242 7.242-18.983 0-26.224l-96.155-96.155c-7.242-7.242-18.983-7.242-26.224 0-7.242 7.242-7.242 18.983 0 26.224z" fill="#c17d4f"/></g><g><path d="m296.209 85.803c3.393.947 6.064 3.618 7.011 7.011 11.617 41.631 1.061 88.15-31.679 120.89-34.158 34.158-83.313 44.169-126.268 30.046-14.123-42.955-4.112-92.11 30.045-126.268 32.741-32.741 79.26-43.297 120.891-31.679z" fill="#b3e59f"/><path d="m303.22 92.813c-.949-3.4-3.632-6.069-7.032-7.017-15.913-4.437-32.538-5.624-48.836-3.582l.237.03c14.868 1.886 26.507 13.791 28.348 28.665 4.524 36.551-7.24 74.734-35.301 102.795-20.214 20.214-45.681 31.968-72.006 35.271 36.588 4.565 74.821-7.18 102.912-35.271 32.739-32.741 43.295-79.26 31.678-120.891z" fill="#95d6a4"/><g><path d="m145.275 251.476c-2.061 0-4.118-.819-5.639-2.442-2.919-3.113-2.761-8.003.352-10.921l96.788-90.744c3.115-2.92 8.003-2.761 10.922.352s2.761 8.003-.352 10.921l-96.788 90.744c-1.492 1.398-3.39 2.09-5.283 2.09z" fill="#78c2a4"/></g></g><g><path d="m11.576 85.803c-3.393.947-6.064 3.618-7.011 7.011-11.617 41.631-1.061 88.15 31.679 120.89 34.158 34.158 83.313 44.169 126.268 30.046 14.123-42.955 4.112-92.11-30.045-126.268-32.741-32.741-79.26-43.297-120.891-31.679z" fill="#b3e59f"/><path d="m132.466 117.481c-28.098-28.098-66.343-39.841-102.938-35.267 26.335 3.299 51.812 15.046 72.033 35.267 34.158 34.157 44.169 83.313 30.045 126.268-7.629 2.508-15.455 4.24-23.356 5.225 18.159 2.279 36.727.54 54.261-5.225 14.124-42.955 4.113-92.11-30.045-126.268z" fill="#95d6a4"/><g><path d="m162.51 251.476c-1.893 0-3.792-.692-5.283-2.09l-96.789-90.744c-3.113-2.919-3.271-7.808-.352-10.921 2.918-3.112 7.807-3.272 10.922-.352l96.789 90.744c3.113 2.919 3.271 7.808.352 10.921-1.521 1.622-3.578 2.442-5.639 2.442z" fill="#78c2a4"/></g></g><path d="m198.825 512h114.35c17.069 0 30.905-13.837 30.905-30.905v-24.725h-176.16v24.724c0 17.069 13.836 30.906 30.905 30.906z" fill="#655e67"/><path d="m313.175 456.37v24.724c0 17.068-13.837 30.905-30.905 30.905h30.905c17.069 0 30.905-13.837 30.905-30.905v-24.724z" fill="#544f56"/><path d="m203.461 471.823h105.078c99.567 0 180.282-80.715 180.282-180.282v-40.177h-465.642v40.177c0 99.567 80.715 180.282 180.282 180.282z" fill="#c7c2c9"/><path d="m457.915 251.364v40.177c0 99.567-80.715 180.282-180.282 180.282h30.905c99.567 0 180.282-80.715 180.282-180.282v-40.177z" fill="#a199a4"/><g><path d="m203.461 438.342c-74.358 0-137.028-55.633-145.777-129.408-.502-4.237 2.526-8.08 6.764-8.582 4.232-.503 8.079 2.525 8.582 6.763 7.826 66.003 63.899 115.775 130.431 115.775 4.268 0 7.726 3.459 7.726 7.726s-3.459 7.726-7.726 7.726z" fill="#a199a4"/></g><path d="m23.694 266.817h464.612c13.086 0 23.694-10.608 23.694-23.694 0-13.086-10.608-23.694-23.694-23.694h-464.612c-13.086 0-23.694 10.608-23.694 23.694 0 13.086 10.608 23.694 23.694 23.694z" fill="#655e67"/><path d="m488.306 219.429h-30.906c13.086 0 23.694 10.608 23.694 23.694 0 13.086-10.608 23.694-23.694 23.694h30.905c13.086 0 23.694-10.608 23.694-23.694.001-13.086-10.607-23.694-23.693-23.694z" fill="#544f56"/></g></svg>