<svg xmlns="http://www.w3.org/2000/svg" viewBox="0 0 48 48"><g data-name="Doctor Schedule"><circle cx="36" cy="12" r="11" fill="#7c6f66"/><polygon fill="#fff" points="39.22 15.85 35 11.63 35 4.14 37 4.14 37 10.8 40.64 14.44 39.22 15.85"/><path fill="#fff" d="M35,48V41.61a6,6,0,0,0-3.19-5.3C17.19,28.57,18,29.11,18,29h0c0,.1-13.91,7.36-13.81,7.31A6,6,0,0,0,1,41.61V48"/><polygon fill="#ffbe1d" points="14 31 18 47 10 38 14 31"/><polygon fill="#ffbe1d" points="22 31 18 47 26 38 22 31"/><path fill="#ffbe1d" d="M26 17H10v6a8 8 0 0 0 16 0zM9 23h1V17H9a3 3 0 0 0 0 6zM27 23H26V17h1a3 3 0 0 1 0 6z"/><polygon fill="#fff" points="27 17 9 17 9 8 18 5 27 8 27 17"/><path d="M36,0A12,12,0,0,0,25.38,6.41L18,4,8,7.28v8.85A4,4,0,0,0,9.06,24a9,9,0,0,0,4,6.53l-9.34,4.9A7,7,0,0,0,0,41.61V48H2V41.61a5,5,0,0,1,2.66-4.43c.48-.23,1.9-1,6.63-3.45L9.13,37.5a1,1,0,0,0,.12,1.16c8.16,9.18,8,9.18,8.51,9.31.89.22.54.19,9-9.31a1,1,0,0,0,.12-1.16l-2.18-3.81c1.75.91,3.93,2.06,6.65,3.5A5,5,0,0,1,34,41.61V48h2V41.61a7,7,0,0,0-3.73-6.18L23,30.51a9,9,0,0,0,4-6.51,4,4,0,0,0,3.2-1.53A12,12,0,1,0,36,0ZM10,8.72l8-2.67,8,2.67V16H10ZM7,20a2,2,0,0,1,2-2v4A2,2,0,0,1,7,20Zm4.22,17.87,2.41-4.21L16,43.29Zm4.11-6.28a8.84,8.84,0,0,0,5.36,0c.17.09.31-.7-2.69,11.3C14.87,30.34,15.15,31.72,15.33,31.59Zm9.45,6.28L20,43.29l2.41-9.63Zm-4-8.47A7,7,0,0,1,11,23V18H25v5A7,7,0,0,1,20.83,29.4ZM27,22V18a2,2,0,0,1,1.47,3.34A2,2,0,0,1,27,22ZM31,20.62A4,4,0,0,0,28,16.13V7.28l-.69-.23A10,10,0,1,1,31,20.62Z"/><polygon fill="#7c6f66" points="21 10 19 10 19 8 17 8 17 10 15 10 15 12 17 12 17 14 19 14 19 12 21 12 21 10"/></g></svg>