<svg xmlns="http://www.w3.org/2000/svg" height="2829.333" width="2829.333"><defs><linearGradient id="b" spreadMethod="pad" gradientTransform="matrix(0 18185.4 18185.4 0 10606.6 1340.8)" gradientUnits="userSpaceOnUse" y2="0" x2="1" y1="0" x1="0"><stop offset="0" stop-color="#fffcc4"/><stop offset=".084" stop-color="#fffcc4"/><stop offset=".224" stop-color="#fef682"/><stop offset=".909" stop-color="#ebc73c"/><stop offset="1" stop-color="#ebc73c"/></linearGradient><clipPath id="a" clipPathUnits="userSpaceOnUse"><path d="M16567.1 3971c1552.1 1647.9 2514 3934.5 2514 6462.4 0 5021.8-3794.2 9092.8-8474.5 9092.8-4680.33 0-8474.45-4071-8474.45-9092.8 0-2527.9 961.82-4814.5 2513.96-6462.4z"/></clipPath></defs><g clip-path="url(#a)" transform="matrix(.13333 0 0 -.13333 0 2829.333)"><path d="M13829.8 3314.9c1295.7 1375.63 2098.7 3284.43 2098.7 5394.67 0 4192.13-3167.3 7590.43-7074.35 7590.43-3907.03 0-7074.28-3398.3-7074.28-7590.43 0-2110.24 802.91-4019.04 2098.6-5394.67h9951.33" fill="url(#b)" transform="scale(1.19792)"/></g><path d="M1870.76 1352.693c0 256.867-208.24 465.094-465.107 465.094-256.869 0-465.106-208.227-465.106-465.094 0-256.88 208.237-465.106 465.106-465.106 256.867 0 465.107 208.226 465.107 465.106" fill="#fee769"/><path d="M1874.307 1942.093c3.106 12.507 7.853 24.187 15.133 34.867 6.667 9.813 17 20.04 28.973 22.373 1.36.267 1.96-1.346.907-2.146-9.973-7.587-19.373-13.96-26.933-24.227-6.947-9.427-11.827-20.533-15.56-31.56-.547-1.587-2.934-.96-2.52.693" fill="#060606"/><path d="M1890.76 1941.747c.547 12.64 4.747 23.866 11.013 34.76 2.947 5.106 6.44 9.866 10.054 14.506 3.32 4.267 7.52 11.107 13.053 12.294 1.427.306 2.56-.854 2.28-2.28-.92-4.52-5.347-7.68-8.293-11.067-4.014-4.587-7.6-9.52-10.894-14.64-6.666-10.333-11.226-22.12-14.466-33.947-.414-1.506-2.814-1.226-2.747.374" fill="#060606"/><path d="M1923.067 1944.427c-1.814 10.306-3.467 20.626-4.827 30.986-.72 5.547-1.293 11.12-1.773 16.694-.454 5.413-1.467 11.413-.08 16.706.613 2.347 4.053 2.307 4.693 0 1.067-3.906.733-7.986.893-12.013.214-5.547.667-11.067 1.187-16.587 1.067-11.56 2.733-23.053 4.52-34.506.467-3-4.08-4.334-4.613-1.28M1930.027 1948.387c-.32 8.146-.6 16.28-.8 24.426-.174 6.894-2.507 16.96 1.2 23 .72 1.187 2.453 1.187 3.186 0 3.427-5.6 1.4-14.266 1.254-20.64-.214-8.933-.507-17.853-.867-26.786-.107-2.56-3.867-2.56-3.973 0M1946.187 1945.067c-.294 8.733-.814 17.4-1.747 26.093-.48 4.52-1.44 8.96-2.56 13.347-1.013 4.013-2.68 6.8-1.867 10.906.24 1.187 1.974 1.987 2.987 1.214 6.093-4.614 6.547-15.107 7.507-22.227 1.306-9.72.866-19.573.546-29.333-.106-3.134-4.76-3.134-4.866 0" fill="#060606"/><path d="M566.628 1389.88c82.624 0 171.14-64.973 159.545-90.24-11.596-25.253-57.51-21.147-57.51-21.147s93.749-54.066 64.757-91.426c-28.99-37.347-76.825-18.28-76.825-18.28s71.028-96.827 43.486-115.934c-27.541-19.093-76.825 26.6-76.825 26.6s18.352-126.866-39.63-125.426c-57.983 1.453-47.343 122.533-47.343 122.533s-40.588-65.013-75.378-28.773c-34.789 36.24 39.138 96.106 39.138 96.106s-55.083-13.333-62.331 24.894c-6.165 32.506 71.028 88.12 71.028 88.12s-61.372-39.28-78.276 8.666c-16.904 47.947 53.539 124.307 136.164 124.307" fill="#e39a14"/><path d="M580.05 1613.053S561.7 1538.4 561.7 1462.293c0-76.093 23.729-175.4 22.336-265.466-1.162-75.054.622-129.494.622-129.494s-7.597 84.747-8.59 131.28c-1.327 62.2-28.136 160.907-33.212 257.587-5.08 96.693 0 156.853 0 156.853h37.196" fill="#e39a14"/><path d="M562.627 1334.08c2.272-10.493 4.25-3.96 0-13.84-49.479-5.213-83.559-46.387-83.559-46.387s23.557 44.934 83.559 60.227M577.55 1227.213c2.274-10.493 4.251-3.96 0-13.84-49.48-5.213-83.557-46.386-83.557-46.386s23.555 44.933 83.558 60.226M581.839 1138.067c1.625-7.414 3.037-2.787 0-9.774-35.378-3.68-59.74-32.733-59.74-32.733s16.84 31.72 59.74 42.507M572.452 1346.467c-2.275-10.494-4.252-3.947 0-13.84 49.479-5.2 83.557-46.387 83.557-46.387s-23.554 44.947-83.557 60.227M582.55 1249.747c-2.271-10.48-4.25-3.947 0-13.827 49.48-5.213 83.56-46.4 83.56-46.4s-23.558 44.947-83.56 60.227M584.003 1150.453c-1.624-7.4-3.039-2.786 0-9.76 35.376-3.68 59.741-32.746 59.741-32.746s-16.841 31.72-59.741 42.506M942.257 1409.68c115.28 0 238.782-90.653 222.603-125.907-16.18-35.24-80.241-29.506-80.241-29.506s130.801-75.44 90.352-127.56c-40.448-52.107-107.19-25.507-107.19-25.507s99.1-135.093 60.674-161.747c-38.426-26.653-107.188 37.12-107.188 37.12s25.605-177.026-55.294-175c-80.898 2.014-66.054 170.947-66.054 170.947s-56.63-90.693-105.168-40.133c-48.539 50.56 54.606 134.08 54.606 134.08s-76.853-18.587-86.966 34.733c-8.603 45.347 99.101 122.947 99.101 122.947s-85.628-54.8-109.213 12.093c-23.586 66.907 74.698 173.44 189.978 173.44" fill="#e39a14"/><path d="M960.987 1721.04s-25.607-104.147-25.607-210.333c0-106.174 33.108-244.72 31.164-370.374-1.62-104.72.868-180.68.868-180.68s-10.6 118.24-11.984 183.174c-1.852 86.76-39.256 224.493-46.34 359.386-7.087 134.894 0 218.827 0 218.827h51.899" fill="#e39a14"/><path d="M936.676 1331.813c3.17-14.64 5.93-5.506 0-19.306-69.036-7.267-116.584-64.72-116.584-64.72s32.867 62.706 116.584 84.026M957.499 1182.72c3.17-14.64 5.929-5.52 0-19.307-69.036-7.28-116.583-64.72-116.583-64.72s32.864 62.694 116.583 84.027M963.48 1058.333c2.268-10.333 4.239-3.893 0-13.626-49.357-5.134-83.35-45.68-83.35-45.68s23.495 44.253 83.35 59.306M950.384 1349.107c-3.173-14.64-5.932-5.507 0-19.307 69.033-7.267 116.581-64.72 116.581-64.72s-32.865 62.707-116.581 84.027M964.473 1214.16c-3.169-14.627-5.929-5.507 0-19.307 69.036-7.266 116.584-64.72 116.584-64.72s-32.866 62.707-116.584 84.027M966.5 1075.627c-2.267-10.334-4.24-3.894 0-13.627 49.359-5.133 83.352-45.68 83.352-45.68s-23.497 44.253-83.352 59.307M2266.76 1383.237c-82.616 0-171.14-64.978-159.546-90.245 11.61-25.252 57.512-21.155 57.512-21.155s-93.75-54.068-64.742-91.42c28.979-37.35 76.811-18.29 76.811-18.29s-71.036-96.822-43.482-115.914c27.538-19.106 76.826 26.589 76.826 26.589s-18.364-126.87 39.623-125.416c57.986 1.44 47.357 122.521 47.357 122.521s40.573-65.009 75.371-28.77c34.783 36.237-39.133 96.11-39.133 96.11s55.077-13.332 62.322 24.88c6.16 32.513-71.036 88.124-71.036 88.124s61.371-39.281 78.28 8.67c16.91 47.952-53.533 124.316-136.163 124.316" fill="#e39a14"/><path d="M2253.326 1606.404s18.365-74.652 18.365-150.745c0-76.106-23.744-175.394-22.35-265.472 1.169-75.051-.62-129.498-.62-129.498s7.605 84.755 8.591 131.286c1.324 62.193 28.139 160.904 33.209 257.59 5.084 96.68 0 156.839 0 156.839h-37.195" fill="#e39a14"/><path d="M2270.771 1327.43c-2.267-10.5-4.26-3.957 0-13.85 49.47-5.2 83.557-46.38 83.557-46.38s-23.557 44.935-83.557 60.23M2255.854 1220.56c-2.282-10.492-4.263-3.947 0-13.836 49.472-5.21 83.544-46.386 83.544-46.386s-23.552 44.937-83.544 60.222M2251.543 1131.41c-1.616-7.402-3.034-2.78 0-9.756 35.379-3.687 59.753-32.741 59.753-32.741s-16.845 31.706-59.753 42.497M2260.926 1339.833c2.279-10.492 4.252-3.961 0-13.842-49.487-5.21-83.562-46.387-83.562-46.387s23.556 44.942 83.562 60.229M2250.839 1243.104c2.255-10.486 4.233-3.943 0-13.834-49.487-5.216-83.562-46.389-83.562-46.389s23.56 44.936 83.562 60.223M2249.38 1143.818c1.631-7.407 3.04-2.792 0-9.77-35.375-3.676-59.75-32.736-59.75-32.736s16.844 31.713 59.75 42.506" fill="#e39a14"/><path d="M2426.71 1642.557c-24.472-2.413-50.743-8.533-73.413-18.16-25.76-10.932-45.745-29.28-69.704-43.12-67.842-39.16-145.056-5.533-198.576 42.214-64.722 57.76-108.264 133.866-170.24 194.094-50.044 48.653-115.418 84.693-184.827 52.386-69.083-32.146-120.927-94.187-172.118-148.574-59.643-63.346-122.763-121.08-209.497-142.72-105.45-26.305-206.023-2.707-292.916 61.307-53.949 39.72-114.577 78.04-178.358 33.787-32.656-22.667-58.924-53.146-91.467-75.84-33.567-23.427-72.737-35.586-113.693-37.227-67.876-2.734-129.142 23.413-176.423 71.96-63.806 65.52-103.3 148.908-138.764 233.242 57.918 164.733 148.267 312.4 262.769 433.96h1589.471c165.912-176.148 281.174-407.081 320.371-665.415-32.757 8.6-67.376 11.586-102.616 8.106" fill="#e18617"/><path d="M342.76 2337.265c0-62.28 452.569-112.76 1010.83-112.76 558.266 0 1010.844 50.48 1010.844 112.76 0 27.24-86.526 52.214-230.583 71.694 45.273 17.533 70.629 37.107 70.629 57.76 0 75.04-333.966 135.866-745.929 135.866-411.96 0-745.924-60.826-745.924-135.866 0-13.721 11.215-26.96 31.987-39.454-244.092-20.587-401.854-53.226-401.854-90" fill="#f46f1e"/><path d="M1678.44 1362.48c4.547-45.147-13.547-221.867-1.413-255.373 7.12-3.587 8.96-25.747 8.96-25.747s-23.667-21.6-29.427-14.053c-14.293 18.813-4.96 39.173-4.96 39.173s-46.64 143.4-39.547 258.147c3.027 49.173 68.534 25.533 66.387-2.147" fill="#050200"/><path d="M1701.547 1050.387c1.213-3.214-3.134-5.907-5.68-2.2-2.787 4.106-5.68 10.2-9.28 15.933-3.32 5.32-8.907 13.733-8.907 13.733l6.84 8.32s7.093-14.613 9.827-19.493c2.733-4.867 5.573-11.973 7.2-16.293" fill="#050200"/><path d="M1695.16 1041.253c.907-3.453-3.787-5.546-5.987-1.373-2.44 4.6-4.773 11.267-7.853 17.667-2.84 5.906-7.693 15.36-7.693 15.36l7.813 7.413s5.747-15.973 8.027-21.36c2.28-5.387 4.466-13.067 5.693-17.707" fill="#050200"/><path d="M1687.453 1035.04c.72-3.493-4.08-5.32-6.066-1.04-2.16 4.747-4.134 11.52-6.854 18.067-2.506 6.066-8.52 18.76-8.52 18.76l9.88 3.986s4.867-16.266 6.84-21.773c2-5.507 3.76-13.28 4.72-18M1678.933 1036.053c1.014-3.426-3.613-5.666-5.96-1.546-2.56 4.52-5.12 11.093-8.4 17.4-3.013 5.813-9.026 16.813-9.026 16.813l8.413 5.96s6.267-15.8 8.72-21.107c2.453-5.306 4.88-12.906 6.253-17.52" fill="#050200"/><path d="M1654.493 1053.787c-1.28-5.334-6.933-8.867-6.92-3.36.014 5.213-2.666 13.906-2.44 22.266.187 6.56 3.56 20.827 3.56 20.827l8.08-19.88-1.96-7.907s.947-6.64-.32-11.946M1714.12 1560.707s-30.027-143.8-35.053-209.04c.853-17.894-48.254-40.52-67.747-11.534-2.347 66.907 6.093 156.947 26.467 261.014 12.213 62.466 76.333-40.44 76.333-40.44" fill="#050200"/><path d="M1690.8 1433.013c-12.173-7.72-70.84-10.213-73.693 2.814-2.827 13.04-7.987 143.506 38.986 223.213 37.64 63.853 127.987 16.293 77.68-95.68-23.173-51.627-30.813-122.613-42.973-130.347M2024.973 2301.88l-38.133.467s-7.08-261.574-62.307-372.52c-27.853-55.934 91.44-134.307 116.387-38.827 36.707 140.627-15.947 410.88-15.947 410.88" fill="#050200"/><path d="M2097.853 2382.667c-51.026-8.174-73.213-24.214-99.28-35.214-26.026-10.986-11.546-45.053-11.546-45.053l35.64-4.173s37.16 25.306 77.92 38.906c10.853 3.627 24.12 10.507 34.586 15.814 22.294 11.333-8.773 34.293-37.32 29.72" fill="#050200"/><path d="M2069.187 2346.133c-27.134-6.333-82.16-43.733-82.16-43.733l-.68-32.147 37.706 23.747s37.72 19.96 76.534 43.133c0 0-7.054 14.694-31.4 9M2025.627 1970.093c45.133-35.88 8.92-120.413-34.214-124.826-63.293-6.467-184.293 60.226-245.733 84.253-61.453 24 16.32 214.387 69.2 191.227 69.387-30.387 165.613-114.774 210.747-150.654" fill="#050200"/><path d="M1577.787 2046.467s80.92-101.32 167.893-116.947c69 58.72 107.667 172.133 107.667 172.133s-162.12 94.867-237.027 105.88c-168.747 24.827-38.533-161.066-38.533-161.066" fill="#050200"/><path d="M1616.32 2207.533c110.187-54.893 156.76-207.413 141.093-238.173-15.653-30.76-203.026-86.067-221.426-39.84-12.374 31.093-109.974 9.08-121.294 134.907-9.506 105.6 125.88 180.853 201.627 143.106" fill="#050200"/><path d="M1552.36 1926.627c1.627 20 178.747 67.84 205.053 42.733 21.947-20.947 28.827-118.52 39.44-146.547 20.88-55.173-15.933-158.04-15.933-158.04l-60.667-93.64s-42.933-48.84-89.213 0c-40.987 43.28-34.6 240.08-36.387 264.427-1.773 24.347-43.92 71.08-42.293 91.067" fill="#050200"/><path d="M1753 1590.253c38.4 47.787 79.333 184.307 43.267 272.814-6.454 15.84-209.827 1.16-218.32-10.52-8.494-11.68 17.72-62.907 15.933-192.214-2.12-153.973 120.72-117.866 159.12-70.08" fill="#050200"/><path d="M1709.387 1594.653c-27.627 2.04-60.614-43.453-60.614-43.453l4.44-24.773s-53.093-25.24-71.933-59.027c-20.453-36.667-18.307-61.373-27.467-106.24-11.533-56.44 49.747-81.8 49.747-81.8l117.013 22.68s24.08-6.947 34.907 36.787c12.147 49.04 19.347 116.413-.067 154.933-9.4 18.64-36.773 25.24-36.773 25.24l-4.12 44.533s22.493 29.08-5.133 31.12" fill="#050200"/><path d="M1597.307 1259.067c-25.774 8.8-80.187 44.68-69.56 138.426 4.933 43.374 94.386 134.04 109.986 120.534 8.094-7-.933-11.107-9.986-23.027-11.694-21.347-6.52-38.653-6.827-62.347-.093-7.68 8.667-14.786 9.16-22.08 3.84 22.294 17.747 26.64 14.64-1.306-4.613-41.68 34.973-91.84 76.427-100.6 24.506-4.494 32.893 24.92 32.893 24.92s20.307-28.867 12.28-50.467c-8.04-21.6-46.013-34.44-61.533-34.147-39.134.72-85.187 2.454-107.48 10.094" fill="#050200"/><path d="M1630.08 1410.573s1.68 31.24-7.227 33.24c-8.893 2-20.186-1.906-23.906-18.453-3.72-16.533 3.186-25.493 12.08-27.493 8.92-1.987 19.053 12.706 19.053 12.706M1487.587 1373.027c9.373 4.44 54.666-7.094 64.853-36.014 10.173-28.933-17.88-66.346-27.973-68.72-28.934-6.8-36.134 46.147-36.134 46.147s-34.533 42.6-.746 58.587" fill="#050200"/><path d="M1620.347 1362.48c4.546-45.147-13.547-221.867-1.414-255.373 7.107-3.587 8.96-25.747 8.96-25.747s-23.666-21.6-29.413-14.053c-14.307 18.813-4.987 39.173-4.987 39.173s-46.626 143.4-39.533 258.147c3.04 49.173 68.533 25.533 66.387-2.147" fill="#050200"/><path d="M1643.453 1050.387c1.214-3.214-3.133-5.907-5.666-2.2-2.8 4.106-5.707 10.2-9.294 15.933-3.306 5.32-8.906 13.733-8.906 13.733l6.853 8.32s7.093-14.613 9.813-19.493c2.72-4.867 5.574-11.973 7.2-16.293" fill="#050200"/><path d="M1637.067 1041.253c.906-3.453-3.787-5.546-5.987-1.373-2.44 4.6-4.773 11.267-7.853 17.667-2.84 5.906-7.694 15.36-7.694 15.36l7.8 7.413s5.76-15.973 8.04-21.36c2.28-5.387 4.467-13.067 5.694-17.707" fill="#050200"/><path d="M1629.36 1035.04c.72-3.493-4.093-5.32-6.067-1.04-2.173 4.747-4.133 11.52-6.853 18.067-2.507 6.066-8.52 18.76-8.52 18.76l9.88 3.986s4.867-16.266 6.853-21.773c1.987-5.507 3.747-13.28 4.707-18M1620.827 1036.053c1.013-3.426-3.6-5.666-5.947-1.546-2.573 4.52-5.12 11.093-8.387 17.4-3.026 5.813-9.04 16.813-9.04 16.813l8.427 5.96s6.253-15.8 8.707-21.107c2.453-5.306 4.893-12.906 6.24-17.52" fill="#050200"/><path d="M1596.4 1053.787c-1.28-5.334-6.947-8.867-6.92-3.36.013 5.213-2.667 13.906-2.44 22.266.173 6.56 3.56 20.827 3.56 20.827l8.08-19.88-1.96-7.907s.947-6.64-.32-11.946M1656.027 1560.707s-30.027-143.8-35.054-209.04c.854-17.894-48.253-40.52-67.733-11.534-2.347 66.907 6.08 156.947 26.44 261.014 12.227 62.466 76.347-40.44 76.347-40.44" fill="#050200"/><path d="M1632.707 1433.013c-12.16-7.72-70.854-10.213-73.694 2.814-2.826 13.04-7.986 143.506 38.987 223.213 37.64 63.853 127.987 16.293 77.693-95.68-23.186-51.627-30.813-122.613-42.986-130.347M731.32 2335.347l.896-38.134s299.021-29.293 439.61-62.6c60.81-14.4 101.486 119.654 10.46 124.814-144.586 8.173-450.966-24.08-450.966-24.08M592.697 2326.747c20.402-30.667 68.387-52.307 95.93-53.52 27.552-1.214 43.538 24.173 43.538 24.173l-20.773 29.267s-47.172 2.96-84.572 24.106c-9.964 5.627-20.443 18.6-31.41 22.8-23.337 8.987-18.733-22.76-2.713-46.826" fill="#050200"/><path d="M641.164 2321.453c22.873-15.92 91.001-24.053 91.001-24.053l24.326 21.027-25.171 16.92s-61.293 2.133-104.5 15.426c0 0-6.172-15.066 14.344-29.32M1138.233 2242.173c-48.674 30.907-28.024 122.28 44.054 117.254 62.113-4.347 177.673-48.694 241.313-66.08 63.653-17.374-21.093-219.027-70.307-188.854-49.209 30.187-166.394 106.8-215.06 137.68" fill="#050200"/><path d="M1616.32 2207.533s-70.32 62.867-192.72 85.814c-62.387-65.694-93.484-174.014-93.484-174.014l170.924-107.386 115.28 195.586" fill="#050200"/></svg>